<svg xmlns="http://www.w3.org/2000/svg" viewBox="248 338 3825 539" width="3825" height="539" fill="none">
  <path fill="currentColor" fill-rule="evenodd" d="M 546.500 358.599 C 461.969 363.829, 397.760 390.494, 348.977 440.630 C 304.481 486.359, 278.965 547.191, 270.804 627 C 269.077 643.890, 269.106 692.792, 270.850 704.500 C 277.383 748.358, 290.581 776.964, 315.858 802.056 C 344.571 830.558, 381.245 846.579, 434 853.667 C 453.270 856.256, 501.844 856.263, 521 853.679 C 565.930 847.620, 602.206 834.208, 638.439 810.260 C 646.128 805.177, 652.701 801.352, 653.045 801.760 C 653.389 802.167, 654.668 809.475, 655.887 818 C 657.106 826.525, 658.584 836.763, 659.173 840.750 L 660.243 848 699.911 848 L 739.578 848 762.886 716.250 C 775.705 643.787, 786.432 583.261, 786.723 581.746 L 787.252 578.992 658.947 579.246 L 530.643 579.500 522 628 L 513.356 676.500 567.722 676.759 L 622.087 677.017 621.410 680.759 C 615.473 713.528, 574.872 738.900, 525.427 740.740 C 455.313 743.349, 418.477 706.044, 427.435 641.500 C 430.783 617.373, 438.130 575.259, 440.560 566.264 C 450.447 529.664, 474.736 499.488, 505.648 485.401 C 526.048 476.104, 556.647 471.349, 579.500 473.924 C 622.786 478.802, 648.480 501.462, 646.844 533.316 L 646.500 540.004 720.170 540.002 L 793.841 540 794.670 533.250 C 796.244 520.450, 795.621 489.354, 793.604 480 C 779.332 413.810, 714.880 371.286, 612.500 360.510 C 598.664 359.053, 558.123 357.879, 546.500 358.599 M 875 367.415 C 875 367.643, 906.035 433.823, 943.968 514.482 L 1012.935 661.134 996.976 751.817 C 988.199 801.693, 980.752 843.740, 980.428 845.256 L 979.838 848.012 1057.107 847.756 L 1134.375 847.500 1149.147 763.500 C 1157.272 717.300, 1164.666 675.339, 1165.577 670.254 L 1167.235 661.009 1287.150 514.254 L 1407.065 367.500 1320.316 367.244 C 1238.697 367.004, 1233.469 367.093, 1231.910 368.744 C 1230.998 369.710, 1204.051 405.938, 1172.026 449.250 C 1134.952 499.393, 1113.188 528, 1112.115 528 C 1110.826 528, 1102.571 509.087, 1076.981 447.500 L 1043.533 367 959.266 367 C 912.920 367, 875 367.187, 875 367.415 M 1423.135 605.750 C 1399.885 737.063, 1380.636 845.291, 1380.361 846.257 C 1379.887 847.922, 1383.513 848, 1450.163 847.757 L 1520.466 847.500 1534.682 767.500 C 1552.906 664.940, 1554.531 655.167, 1556.964 633.500 C 1559.694 609.194, 1562.645 570.871, 1564.143 540.250 L 1565.378 515 1567.689 515 C 1569.131 515, 1570 515.596, 1570 516.583 C 1570 517.454, 1571.101 529.491, 1572.446 543.333 C 1573.792 557.175, 1580.204 631.387, 1586.696 708.250 L 1598.500 848 1659.536 848 L 1720.573 848 1784.521 708.250 C 1839.158 588.847, 1868.866 521.306, 1868.974 516.250 C 1868.989 515.524, 1870.302 515, 1872.107 515 C 1874.658 515, 1875.093 515.313, 1874.535 516.750 C 1873.127 520.383, 1864.968 553.362, 1860.058 575.270 C 1851.154 614.998, 1842.566 659.959, 1826.013 753.500 C 1817.157 803.550, 1809.675 845.288, 1809.388 846.250 C 1808.893 847.906, 1812.848 848, 1882.683 847.999 L 1956.500 847.997 1996.430 622.749 C 2018.392 498.862, 2037.567 390.635, 2039.040 382.246 L 2041.720 366.991 1933.629 367.246 L 1825.537 367.500 1790.259 446.500 C 1759.426 515.544, 1730.246 582.105, 1707.471 635.340 C 1697.819 657.900, 1696.725 657.781, 1695.132 634 C 1693.775 613.753, 1673.076 372.383, 1672.428 369.250 L 1671.962 367 1568.685 367 L 1465.409 367 1423.135 605.750"/>
  <path fill="#F8BB0A" fill-rule="evenodd" d="M 543.762 358.707 C 545.006 358.946, 546.806 358.937, 547.762 358.687 C 548.718 358.437, 547.700 358.241, 545.500 358.252 C 543.300 358.263, 542.518 358.468, 543.762 358.707 M 586.750 358.706 C 587.987 358.944, 590.013 358.944, 591.250 358.706 C 592.487 358.467, 591.475 358.272, 589 358.272 C 586.525 358.272, 585.513 358.467, 586.750 358.706 M 3320.500 358.692 C 3205.282 366.324, 3127.643 419.517, 3114.101 500.102 C 3108.740 532.009, 3111.131 560.180, 3120.943 580.706 C 3135.830 611.849, 3162.787 631.990, 3210.981 647.977 C 3227.916 653.595, 3251.701 659.788, 3299.500 671.024 C 3338.056 680.087, 3354.894 688.030, 3361.026 700.050 C 3364.162 706.198, 3363.525 717.722, 3359.686 724.272 C 3352.519 736.502, 3336.032 742.908, 3305.929 745.159 C 3288.472 746.464, 3265.927 745.332, 3252.500 742.475 C 3236.839 739.143, 3225.105 730.566, 3221.304 719.671 C 3218.904 712.791, 3218.928 695.284, 3221.345 689.628 C 3222.255 687.498, 3223 685.586, 3223 685.378 C 3223 685.170, 3190.167 685, 3150.039 685 L 3077.077 685 3076.107 688.750 C 3072.132 704.115, 3071.189 739.130, 3074.349 754 C 3086.570 811.511, 3133.493 842.179, 3225 852.464 C 3268.651 857.370, 3317.407 857.357, 3349.500 852.431 C 3442.921 838.093, 3508.469 784.956, 3523.969 711 C 3527.180 695.679, 3528.578 673.319, 3527.148 660.141 C 3524.445 635.213, 3517.289 619.592, 3500.618 602.224 C 3474.930 575.461, 3439.406 560.663, 3359.500 543.438 C 3311.989 533.196, 3296.266 527.767, 3284.196 517.436 C 3275.180 509.719, 3272.661 497.329, 3278.195 487.916 C 3286.886 473.132, 3307.571 464.699, 3338.565 463.304 C 3379.557 461.459, 3400.238 476.402, 3398.855 506.865 L 3398.485 515 3470.636 515 C 3534.012 515, 3542.856 514.817, 3543.365 513.492 C 3543.683 512.663, 3544.684 505.450, 3545.589 497.463 C 3551.123 448.618, 3530.820 411.126, 3485.500 386.503 C 3447.550 365.883, 3381.076 354.679, 3320.500 358.692 M 3826.500 358.692 C 3711.282 366.324, 3633.643 419.517, 3620.101 500.102 C 3614.740 532.009, 3617.131 560.180, 3626.943 580.706 C 3641.830 611.849, 3668.787 631.990, 3716.981 647.977 C 3733.916 653.595, 3757.701 659.788, 3805.500 671.024 C 3844.056 680.087, 3860.894 688.030, 3867.026 700.050 C 3870.162 706.198, 3869.525 717.722, 3865.686 724.272 C 3858.519 736.502, 3842.032 742.908, 3811.929 745.159 C 3794.472 746.464, 3771.927 745.332, 3758.500 742.475 C 3742.839 739.143, 3731.105 730.566, 3727.304 719.671 C 3724.904 712.791, 3724.928 695.284, 3727.345 689.628 C 3728.255 687.498, 3729 685.586, 3729 685.378 C 3729 685.170, 3696.167 685, 3656.039 685 L 3583.077 685 3582.107 688.750 C 3578.132 704.115, 3577.189 739.130, 3580.349 754 C 3592.570 811.511, 3639.493 842.179, 3731 852.464 C 3774.651 857.370, 3823.407 857.357, 3855.500 852.431 C 3948.921 838.093, 4014.469 784.956, 4029.969 711 C 4033.180 695.679, 4034.578 673.319, 4033.148 660.141 C 4030.445 635.213, 4023.289 619.592, 4006.618 602.224 C 3980.930 575.461, 3945.406 560.663, 3865.500 543.438 C 3817.989 533.196, 3802.266 527.767, 3790.196 517.436 C 3781.180 509.719, 3778.661 497.329, 3784.195 487.916 C 3792.886 473.132, 3813.571 464.699, 3844.565 463.304 C 3885.557 461.459, 3906.238 476.402, 3904.855 506.865 L 3904.485 515 3976.636 515 C 4040.012 515, 4048.856 514.817, 4049.365 513.492 C 4049.683 512.663, 4050.684 505.450, 4051.589 497.463 C 4057.123 448.618, 4036.820 411.126, 3991.500 386.503 C 3953.550 365.883, 3887.076 354.679, 3826.500 358.692 M 874 366.750 C 874 367.430, 934.246 367.423, 1014 366.734 C 1030.775 366.589, 1006.138 366.364, 959.250 366.235 C 912.362 366.106, 874 366.337, 874 366.750 M 1231.921 367.750 C 1230.794 369.239, 1230.806 369.313, 1231.998 368.250 C 1233.959 366.502, 1407.485 366.407, 1406.405 368.155 C 1405.962 368.870, 1406.130 369.038, 1406.845 368.595 C 1407.480 368.203, 1408 367.459, 1408 366.941 C 1408 366.360, 1374.554 366, 1320.622 366 C 1238.577 366, 1233.164 366.107, 1231.921 367.750 M 1502 366.736 C 1600.631 367.423, 1673 367.429, 1673 366.750 C 1673 366.337, 1626.088 366.107, 1568.750 366.238 C 1511.412 366.368, 1481.375 366.593, 1502 366.736 M 1879.750 366.750 C 1909.587 366.897, 1958.412 366.897, 1988.250 366.750 C 2018.087 366.603, 1993.675 366.482, 1934 366.482 C 1874.325 366.482, 1849.912 366.603, 1879.750 366.750 M 2145.598 366.841 C 2145.313 367.303, 2126.153 474.516, 2103.021 605.091 C 2079.890 735.666, 2060.711 843.737, 2060.403 845.250 L 2059.841 848 2137.216 848 L 2214.592 848 2227.858 772.250 C 2235.155 730.587, 2241.352 695.712, 2241.630 694.750 C 2242.104 693.106, 2246.153 692.999, 2308.317 692.985 C 2396.590 692.964, 2409.172 691.983, 2436.112 683.023 C 2486.582 666.237, 2527.571 625.370, 2545.447 574.015 C 2562.754 524.293, 2561.396 471.278, 2541.859 433.919 C 2520.868 393.780, 2484.618 370.722, 2436.637 366.990 C 2421.568 365.817, 2146.318 365.677, 2145.598 366.841 M 2744.209 373.250 C 2742.025 377.238, 2684.116 483.775, 2615.523 610 C 2546.929 736.225, 2489.707 841.413, 2488.362 843.750 L 2485.916 848 2567.211 848 L 2648.506 848 2664.514 814.250 L 2680.522 780.500 2765.151 780.244 L 2849.780 779.989 2850.294 782.244 C 2850.577 783.485, 2852.517 798.788, 2854.606 816.250 L 2858.405 848 2937.830 848 L 3017.256 848 3016.643 844.250 C 3014.333 830.114, 2927.954 367.734, 2927.479 366.967 C 2927.102 366.356, 2893.976 366, 2837.531 366 L 2748.181 366 2744.209 373.250 M 562.768 473.725 C 564.565 473.947, 567.265 473.943, 568.768 473.715 C 570.271 473.486, 568.800 473.304, 565.500 473.310 C 562.200 473.315, 560.971 473.502, 562.768 473.725 M 2279.498 482.250 C 2279.201 483.488, 2275.369 504.975, 2270.983 530 C 2266.597 555.025, 2262.773 576.513, 2262.485 577.750 L 2261.962 580 2305.523 580 C 2341.329 580, 2350.446 579.719, 2356.733 578.420 C 2380.195 573.574, 2394.535 556.080, 2398.064 528 C 2400.107 511.736, 2397.034 499.903, 2388.565 491.435 C 2378.488 481.357, 2370.364 480.085, 2315.769 480.034 L 2280.038 480 2279.498 482.250 M 796.355 508.500 C 796.352 513.450, 796.521 515.601, 796.731 513.280 C 796.940 510.959, 796.943 506.909, 796.736 504.280 C 796.530 501.651, 796.358 503.550, 796.355 508.500 M 2808.103 511.250 C 2805.463 516.888, 2799.211 530.050, 2794.209 540.500 C 2789.207 550.950, 2773.201 584.700, 2758.639 615.500 L 2732.164 671.500 2784.240 671.759 C 2812.881 671.901, 2836.416 671.901, 2836.539 671.759 C 2836.881 671.363, 2823.516 559.937, 2820.675 539.500 C 2819.299 529.600, 2817.633 516.888, 2816.974 511.250 C 2816.075 503.565, 2815.416 501, 2814.339 501 C 2813.497 501, 2810.919 505.237, 2808.103 511.250 M 1565.374 516.467 C 1565.065 517.274, 1565.043 518.511, 1565.327 519.217 C 1565.610 519.923, 1565.878 519.435, 1565.921 518.133 C 1565.983 516.274, 1566.429 515.879, 1568.001 516.290 C 1569.102 516.578, 1569.751 516.405, 1569.442 515.907 C 1568.566 514.489, 1565.997 514.843, 1565.374 516.467 M 646.343 531.500 C 646.346 535.900, 646.522 537.576, 646.733 535.224 C 646.945 532.872, 646.942 529.272, 646.727 527.224 C 646.512 525.176, 646.339 527.100, 646.343 531.500 M 1564.272 540 C 1564.272 542.475, 1564.467 543.487, 1564.706 542.250 C 1564.944 541.013, 1564.944 538.987, 1564.706 537.750 C 1564.467 536.513, 1564.272 537.525, 1564.272 540 M 1563.252 558.500 C 1563.263 560.700, 1563.468 561.482, 1563.707 560.238 C 1563.946 558.994, 1563.937 557.194, 1563.687 556.238 C 1563.437 555.282, 1563.241 556.300, 1563.252 558.500 M 426.252 653.500 C 426.263 655.700, 426.468 656.482, 426.707 655.238 C 426.946 653.994, 426.937 652.194, 426.687 651.238 C 426.437 650.282, 426.241 651.300, 426.252 653.500 M 426.272 665 C 426.272 667.475, 426.467 668.487, 426.706 667.250 C 426.944 666.013, 426.944 663.987, 426.706 662.750 C 426.467 661.513, 426.272 662.525, 426.272 665 M 268.252 669.500 C 268.263 671.700, 268.468 672.482, 268.707 671.238 C 268.946 669.994, 268.937 668.194, 268.687 667.238 C 268.437 666.282, 268.241 667.300, 268.252 669.500 M 604.453 710.250 L 600.500 714.500 604.750 710.547 C 607.087 708.373, 609 706.460, 609 706.297 C 609 705.540, 608.129 706.298, 604.453 710.250 M 472.250 856.739 C 475.413 856.937, 480.587 856.937, 483.750 856.739 C 486.913 856.541, 484.325 856.378, 478 856.378 C 471.675 856.378, 469.087 856.541, 472.250 856.739"/>
</svg>
