<svg xmlns="http://www.w3.org/2000/svg" viewBox="249 338 3670 539" width="3670" height="539" fill="none">
  <path fill="currentColor" fill-rule="evenodd" d="M 539.500 358.626 C 492.827 362.306, 454.454 372.261, 418.500 390.014 C 355.054 421.342, 311.767 471.699, 288.156 541.646 C 275.837 578.140, 270.184 613.059, 269.298 658.134 C 268.701 688.549, 269.470 700.952, 273.137 719.998 C 289.242 803.638, 354.639 851.225, 459.932 855.921 C 532.280 859.147, 593.360 843.007, 643.452 807.429 C 648.376 803.932, 652.536 801.203, 652.698 801.364 C 652.859 801.526, 654.359 811.072, 656.030 822.579 C 657.702 834.086, 659.287 844.512, 659.554 845.750 L 660.038 848 699.940 848 L 739.841 848 740.412 845.250 C 742.042 837.400, 787 582.061, 787 580.655 C 787 579.124, 777.405 579, 658.694 579 L 530.389 579 522.095 625.750 C 517.534 651.462, 513.572 673.513, 513.292 674.750 L 512.783 677 567.411 677 L 622.038 677 621.429 679.750 C 615.913 704.665, 594.753 724.180, 562.171 734.404 C 533.598 743.369, 496.747 742.652, 471.979 732.648 C 436.412 718.281, 421.149 684.795, 428.385 637 C 438.119 572.703, 441.301 559.169, 451.275 539.625 C 474.208 494.687, 514.502 472.600, 570.500 474.273 C 590.900 474.882, 599.686 476.824, 614.500 483.997 C 636.360 494.583, 646.012 508.904, 646.347 531.250 L 646.493 541 720.119 541 L 793.744 541 794.369 537.096 C 797.586 516.977, 797.070 493.503, 793.036 476.447 C 777.909 412.489, 713.849 371.157, 612.500 359.963 C 602.516 358.860, 548.966 357.879, 539.500 358.626 M 843.312 367.250 C 843.601 367.938, 874.699 434.069, 912.419 514.210 C 950.138 594.350, 981 660.906, 981 662.113 C 981 663.319, 973.800 705.160, 965 755.093 C 956.200 805.026, 949 846.357, 949 846.940 C 949 847.678, 972.521 848, 1026.323 848 L 1103.645 848 1120.088 754.560 L 1136.530 661.119 1256.015 514.929 C 1321.732 434.524, 1375.860 368.123, 1376.300 367.369 C 1376.974 366.215, 1363.413 366, 1289.737 366 L 1202.375 366 1142.578 446.750 C 1106.914 494.910, 1082.138 527.500, 1081.189 527.500 C 1080.022 527.500, 1070.622 505.899, 1046.048 446.751 L 1012.500 366.002 927.643 366.001 C 860.143 366, 842.894 366.256, 843.312 367.250 M 1401.630 369.250 C 1401.305 371.038, 1382.345 478.025, 1359.497 607 C 1336.649 735.975, 1317.690 842.962, 1317.366 844.750 L 1316.777 848 1387.389 848 C 1426.225 848, 1458 847.663, 1458.001 847.250 C 1458.002 846.837, 1465.384 804.875, 1474.407 754 C 1483.430 703.125, 1491.741 654.300, 1492.877 645.500 C 1496.571 616.890, 1500.431 568.803, 1501.788 534.500 C 1502.463 517.427, 1502.605 516.485, 1504.536 516.208 C 1506.482 515.930, 1506.674 516.962, 1508.818 539.208 C 1510.053 552.019, 1511.511 568.575, 1512.057 576 C 1512.604 583.425, 1517.990 647.243, 1524.026 717.817 C 1530.062 788.392, 1535 846.558, 1535 847.075 C 1535 847.655, 1558.621 847.916, 1596.585 847.758 L 1658.170 847.500 1722.596 706.635 C 1775.455 591.062, 1799.578 536.359, 1806.334 516.750 C 1806.939 514.994, 1811 514.233, 1811 515.876 C 1811 516.358, 1808.767 525.470, 1806.039 536.126 C 1793.833 583.789, 1784.064 632.707, 1762.565 753.800 C 1753.454 805.114, 1746 847.302, 1746 847.550 C 1746 847.797, 1779.300 848, 1820 848 C 1860.700 848, 1894 847.799, 1894 847.554 C 1894 847.308, 1913.125 739.255, 1936.500 607.435 C 1959.875 475.616, 1979 367.364, 1979 366.877 C 1979 366.366, 1933.181 366.099, 1870.799 366.246 L 1762.598 366.500 1723.444 454.264 C 1701.909 502.534, 1673.762 566.545, 1660.895 596.510 C 1640.638 643.686, 1637.219 650.994, 1635.405 650.997 C 1633.416 651, 1633.278 650.332, 1632.671 637.750 C 1632.320 630.462, 1630.022 601.325, 1627.564 573 C 1625.106 544.675, 1620.131 487.075, 1616.507 445 C 1612.883 402.925, 1609.726 367.938, 1609.491 367.250 C 1609.152 366.261, 1587.484 366, 1505.643 366 L 1402.223 366 1401.630 369.250"/>
  <path fill="#F8BB0A" fill-rule="evenodd" d="M 3192.737 359.014 C 3099.480 367.404, 3034.611 402.234, 3005.228 459.695 C 2994.496 480.683, 2989.804 502.250, 2989.716 531 C 2989.632 558.655, 2993.681 574.499, 3005.444 592.545 C 3026.954 625.544, 3064.884 644.909, 3143.500 663.028 C 3207.634 677.809, 3222.130 682.570, 3232.783 692.351 C 3246.964 705.371, 3242.616 727.067, 3223.926 736.537 C 3200.012 748.655, 3137.305 748.808, 3114.781 736.803 C 3107.483 732.913, 3101.685 726.495, 3099.304 719.671 C 3096.904 712.791, 3096.928 695.284, 3099.345 689.628 C 3100.255 687.498, 3101 685.586, 3101 685.378 C 3101 685.170, 3068.167 685, 3028.039 685 L 2955.077 685 2954.084 688.750 C 2948.892 708.365, 2948.915 741.847, 2954.136 761.779 C 2966.487 808.932, 3010.230 838.833, 3083.055 849.904 C 3120.411 855.582, 3180.551 857.774, 3211 854.568 C 3315.849 843.527, 3389.107 786.765, 3402.941 705.848 C 3408.229 674.915, 3406.173 648.136, 3396.991 628.327 C 3392.104 617.785, 3388.334 612.383, 3379.051 602.620 C 3353.095 575.320, 3316.233 560.093, 3233.500 542.497 C 3198.683 535.091, 3186.191 531.362, 3173.026 524.444 C 3158.893 517.018, 3153.600 510.107, 3153.537 499 C 3153.435 481.114, 3173.492 467.737, 3206.108 463.936 C 3218.496 462.493, 3237.974 463.243, 3246.419 465.488 C 3266.919 470.940, 3277.724 485.506, 3276.852 506.515 L 3276.500 515 3348.731 515 L 3420.962 515 3421.473 512.750 C 3424.219 500.667, 3425.348 482.058, 3424.046 470.331 C 3417.259 409.188, 3364.134 371.297, 3270 360.458 C 3254.110 358.628, 3206.844 357.745, 3192.737 359.014 M 3666.737 359.014 C 3573.480 367.404, 3508.611 402.234, 3479.228 459.695 C 3468.496 480.683, 3463.804 502.250, 3463.716 531 C 3463.632 558.655, 3467.681 574.499, 3479.444 592.545 C 3500.954 625.544, 3538.884 644.909, 3617.500 663.028 C 3681.634 677.809, 3696.130 682.570, 3706.783 692.351 C 3720.964 705.371, 3716.616 727.067, 3697.926 736.537 C 3674.012 748.655, 3611.305 748.808, 3588.781 736.803 C 3581.483 732.913, 3575.685 726.495, 3573.304 719.671 C 3570.904 712.791, 3570.928 695.284, 3573.345 689.628 C 3574.255 687.498, 3575 685.586, 3575 685.378 C 3575 685.170, 3542.167 685, 3502.039 685 L 3429.077 685 3428.084 688.750 C 3422.892 708.365, 3422.915 741.847, 3428.136 761.779 C 3440.487 808.932, 3484.230 838.833, 3557.055 849.904 C 3594.411 855.582, 3654.551 857.774, 3685 854.568 C 3789.849 843.527, 3863.107 786.765, 3876.941 705.848 C 3882.229 674.915, 3880.173 648.136, 3870.991 628.327 C 3866.104 617.785, 3862.334 612.383, 3853.051 602.620 C 3827.095 575.320, 3790.233 560.093, 3707.500 542.497 C 3672.683 535.091, 3660.191 531.362, 3647.026 524.444 C 3632.893 517.018, 3627.600 510.107, 3627.537 499 C 3627.435 481.114, 3647.492 467.737, 3680.108 463.936 C 3692.496 462.493, 3711.974 463.243, 3720.419 465.488 C 3740.919 470.940, 3751.724 485.506, 3750.852 506.515 L 3750.500 515 3822.731 515 L 3894.962 515 3895.473 512.750 C 3898.219 500.667, 3899.348 482.058, 3898.046 470.331 C 3891.259 409.188, 3838.134 371.297, 3744 360.458 C 3728.110 358.628, 3680.844 357.745, 3666.737 359.014 M 2051.573 366.882 C 2051.157 367.555, 1966 845.977, 1966 847.640 C 1966 847.838, 2000.875 848, 2043.500 848 C 2099.486 848, 2121 847.693, 2121 846.893 C 2121 845.721, 2146.646 699.031, 2147.497 695.335 L 2147.995 693.170 2224.748 692.738 C 2307.550 692.272, 2308.545 692.214, 2330.682 686.563 C 2410.301 666.235, 2463.128 593.091, 2463.257 503 C 2463.296 476.199, 2459.439 457.754, 2449.561 437.500 C 2428.892 395.116, 2392.670 371.100, 2343.235 367.004 C 2328.367 365.772, 2052.330 365.657, 2051.573 366.882 M 2653.707 372.250 C 2651.801 375.688, 2593.889 482.225, 2525.013 609 C 2456.138 735.775, 2398.689 841.413, 2397.350 843.750 L 2394.916 848 2476.242 848 L 2557.567 848 2573.558 814.250 L 2589.549 780.500 2674.149 780.244 L 2758.748 779.989 2759.265 782.744 C 2759.550 784.260, 2761.507 799.563, 2763.614 816.750 L 2767.445 848 2846.723 848 C 2907.908 848, 2926 847.725, 2926 846.795 C 2926 846.132, 2905.975 737.992, 2881.500 606.483 C 2857.025 474.975, 2837 367.067, 2837 366.688 C 2837 366.310, 2796.539 366, 2747.086 366 L 2657.172 366 2653.707 372.250 M 2185.527 482.250 C 2185.301 482.938, 2181.467 504.425, 2177.007 530 C 2172.547 555.575, 2168.656 577.316, 2168.361 578.313 C 2167.848 580.049, 2169.808 580.109, 2214.663 579.741 C 2253.438 579.422, 2262.386 579.087, 2266.650 577.795 C 2290.230 570.647, 2304.125 549.116, 2304.270 519.500 C 2304.373 498.580, 2296.334 487.370, 2277.664 482.399 C 2270.475 480.485, 2186.151 480.349, 2185.527 482.250 M 2717.628 510.250 C 2715.259 515.337, 2709.437 527.600, 2704.688 537.500 C 2699.940 547.400, 2683.712 581.600, 2668.625 613.500 L 2641.194 671.500 2693.255 671.759 C 2721.888 671.901, 2745.407 671.901, 2745.518 671.759 C 2745.845 671.342, 2733.503 568.310, 2730.634 547.500 C 2727.865 527.418, 2725 504.425, 2725 502.280 C 2725 501.576, 2724.310 501, 2723.467 501 C 2722.511 501, 2720.314 504.480, 2717.628 510.250"/>
</svg>
